<svg width="106" height="70" viewBox="0 0 106 70" fill="none" xmlns="http://www.w3.org/2000/svg">
<rect width="106" height="66" transform="translate(0 2)" fill="white"/>
<path fill-rule="evenodd" clip-rule="evenodd" d="M53.6006 26.4468C55.4717 26.9482 56.9179 28.185 57.6435 29.6893C59.3904 29.2468 61.3181 29.2286 63.2477 29.7456C63.7015 29.8672 64.1331 30.0217 64.5541 30.191C64.5097 29.4865 64.571 28.7702 64.761 28.0614C65.8158 24.1246 70.2815 21.9003 74.7373 23.0943C76.7204 23.6256 78.3641 24.7469 79.4877 26.1729C82.4172 23.6396 86.7934 22.5846 91.1722 23.7579C97.8062 25.5355 101.91 31.7297 100.338 37.5943C98.8058 43.3137 92.4412 46.5923 85.9737 45.1032C85.9702 45.1164 85.9691 45.1302 85.9653 45.1445C84.6799 49.9419 79.2374 52.6536 73.8106 51.1995C70.7422 50.3773 68.3379 48.3996 67.0558 45.9687C64.7324 47.4335 61.6614 47.9441 58.5918 47.1216C53.4857 45.7534 50.2144 41.1828 50.9173 36.6499C50.8999 36.6452 50.8844 36.6434 50.8695 36.6394C47.6842 35.7859 45.7143 32.8138 46.4688 29.998C47.2227 27.1845 50.4153 25.5933 53.6006 26.4468Z" fill="#5E76FA" fill-opacity="0.101961"/>
<path fill-rule="evenodd" clip-rule="evenodd" d="M36.8674 12.8924C35.8352 13.2681 35.0977 14.0909 34.7915 15.0574C33.763 14.8374 32.6603 14.8896 31.5958 15.2771C31.3454 15.3682 31.1108 15.479 30.8826 15.5989C30.8566 15.1563 30.7701 14.7095 30.6107 14.2715C29.7255 11.8394 27.0159 10.5925 24.5583 11.487C23.4643 11.8852 22.6064 12.6419 22.0674 13.5725C20.2127 12.0814 17.6383 11.5643 15.2218 12.4439C11.5625 13.7757 9.6648 17.7921 10.9835 21.4152C12.2696 24.9487 16.1384 26.794 19.724 25.6481C19.727 25.6562 19.7286 25.6649 19.7316 25.673C20.8105 28.6375 24.1128 30.1576 27.1075 29.0677C28.7996 28.4518 30.0309 27.1332 30.5876 25.568C32.02 26.4092 33.8102 26.6281 35.503 26.012C38.3207 24.9864 39.8599 22.0148 39.1328 19.1975C39.1417 19.1942 39.1504 19.1926 39.1594 19.1894C40.9167 18.5498 41.8278 16.6226 41.1946 14.883C40.5617 13.1441 38.6247 12.2528 36.8674 12.8924Z" fill="#5E76FA" fill-opacity="0.101961"/>
<path fill-rule="evenodd" clip-rule="evenodd" d="M37.0556 70H34.3666C33.7837 70 33.3111 69.5254 33.3111 68.9398L31 61.0602C31 60.4746 31.4727 60 32.0555 60L37.9445 61.7858C38.5274 61.7858 39 62.2603 39 62.8459L38.1111 68.9398C38.1111 69.5254 37.6385 70 37.0556 70Z" fill="#E2B39C"/>
<path fill-rule="evenodd" clip-rule="evenodd" d="M56.9444 70H59.6335C60.2164 70 60.6889 69.5254 60.6889 68.9398L63 61.0602C63 60.4746 62.5274 60 61.9445 60L56.0555 61.7858C55.4726 61.7858 55 62.2603 55 62.8459L55.8889 68.9398C55.8889 69.5254 56.3615 70 56.9444 70Z" fill="#E2B39C"/>
<mask id="mask0" mask-type="alpha" maskUnits="userSpaceOnUse" x="29" y="35" width="37" height="34">
<path fill-rule="evenodd" clip-rule="evenodd" d="M29 35.0684H65.9157V68.9183H29V35.0684Z" fill="white"/>
</mask>
<g mask="url(#mask0)">
<path fill-rule="evenodd" clip-rule="evenodd" d="M48.8068 35.0684V37.9325H46.1089V35.0684C34.843 35.6405 29 43.3879 29 52.2476C29 61.4546 37.2639 68.9183 47.4578 68.9183C57.6519 68.9183 65.9157 61.4546 65.9157 52.2476C65.9157 43.3876 60.0833 35.6399 48.8068 35.0684Z" fill="#EAC5B0"/>
</g>
<path fill-rule="evenodd" clip-rule="evenodd" d="M31.6046 33.0008C31.5354 32.9944 31.4668 33.0265 31.4293 33.0849C31.3921 33.1431 27.7523 38.9697 32.235 44.9262C32.2712 44.9742 32.3271 45 32.384 45C32.4157 45 32.4477 44.992 32.4769 44.9754L40.9078 40.1543C40.9898 40.1074 41.0226 40.0068 40.9837 39.9217C40.9549 39.859 38.0452 33.6444 31.6046 33.0008Z" fill="#EAC5B0"/>
<path fill-rule="evenodd" clip-rule="evenodd" d="M62.5708 33.0849C62.5333 33.0264 62.4639 32.9946 62.3956 33.0007C55.9547 33.6444 53.0451 39.859 53.0163 39.9217C52.9774 40.0069 53.0102 40.1073 53.0923 40.1544L61.5231 44.9754C61.5522 44.992 61.5843 45 61.6159 45C61.6729 45 61.7287 44.9742 61.7649 44.9262C66.2476 38.9696 62.608 33.1431 62.5708 33.0849Z" fill="#EAC5B0"/>
<path fill-rule="evenodd" clip-rule="evenodd" d="M55 54.5C55 57.5376 51.6421 60 47.5 60C43.3579 60 40 57.5376 40 54.5C40 51.4624 43.3579 49 47.5 49C51.6421 49 55 51.4624 55 54.5Z" fill="#E2B39C"/>
<path fill-rule="evenodd" clip-rule="evenodd" d="M44 38.7692V37C36.1091 37.875 30 43.9201 30 51.2479C30 54.5425 31.2356 57.5772 33.312 60C31.9617 57.8934 31.1892 55.4499 31.1892 52.8442C31.1892 45.8889 36.6929 40.0892 44 38.7692Z" fill="#F2D6C9"/>
<path fill-rule="evenodd" clip-rule="evenodd" d="M33 64.0257C36.4429 67.6839 41.5386 70 47.225 70C57.5942 70 66 62.2999 66 52.8014C66 50.7897 65.7123 48.8339 65.1417 47C58.5246 74.9256 33 64.0257 33 64.0257Z" fill="#DDB19B"/>
<path fill-rule="evenodd" clip-rule="evenodd" d="M54.9163 54C51.6657 59.1977 45.9199 58.891 43 58.6123C44.2746 59.473 45.9803 60 47.8558 60C51.8014 60 55 57.6708 55 54.7978C55 54.5265 54.9713 54.26 54.9163 54Z" fill="#DDB19B"/>
<path fill-rule="evenodd" clip-rule="evenodd" d="M32.6249 34C32.6249 34 30.8906 35.6937 31.0055 40C31.0055 40 31.5757 35.4563 34 34.233L32.6249 34Z" fill="#F2D6C9"/>
<path fill-rule="evenodd" clip-rule="evenodd" d="M41 54C41 54 41.5316 50.7755 45 50C45 50 42.7211 51.0833 41 54Z" fill="#EAC5B0"/>
<path fill-rule="evenodd" clip-rule="evenodd" d="M56 69.7584C56.173 69.9093 56.3921 70 56.6309 70H59.2047C59.7627 70 60.2149 69.5077 60.2149 68.9004L61 66C59.0738 68.4305 57.1839 69.3844 56 69.7584Z" fill="#DDB19B"/>
<path fill-rule="evenodd" clip-rule="evenodd" d="M45 54C45 54.5522 44.7762 55 44.5 55C44.2238 55 44 54.5522 44 54C44 53.4477 44.2238 53 44.5 53C44.7762 53 45 53.4477 45 54Z" fill="#CE9A80"/>
<path fill-rule="evenodd" clip-rule="evenodd" d="M51 54C51 54.5522 50.7761 55 50.5 55C50.2239 55 50 54.5522 50 54C50 53.4477 50.2239 53 50.5 53C50.7761 53 51 53.4477 51 54Z" fill="#CE9A80"/>
<mask id="mask1" mask-type="alpha" maskUnits="userSpaceOnUse" x="54" y="0" width="30" height="30">
<path fill-rule="evenodd" clip-rule="evenodd" d="M54.0417 0.0429688H83.969V29.9703H54.0417V0.0429688Z" fill="white"/>
</mask>
<g mask="url(#mask1)">
<path fill-rule="evenodd" clip-rule="evenodd" d="M54.0601 14.2722C54.4657 6.01817 61.4858 -0.344251 69.7398 0.0613309C77.9939 0.466913 84.3563 7.487 83.9507 15.741C83.5451 23.9952 76.525 30.3576 68.271 29.9519C60.0169 29.5463 53.6545 22.5262 54.0601 14.2722Z" fill="#FFD559"/>
</g>
<path fill-rule="evenodd" clip-rule="evenodd" d="M56.0153 13.8865C56.3542 6.99142 62.2184 1.67651 69.1136 2.01534C76.0086 2.35417 81.3236 8.2184 80.9846 15.1135C80.6459 22.0086 74.7816 27.3234 67.8865 26.9847C60.9914 26.6457 55.6764 20.7816 56.0153 13.8865Z" fill="#EBB044"/>
<path fill-rule="evenodd" clip-rule="evenodd" d="M76.4034 5C77.5831 7.01785 78.2075 9.37951 78.0825 11.8751C77.7341 18.8247 71.707 24.1815 64.6203 23.84C62.1591 23.7214 59.8942 22.9305 58 21.6582C60.1055 25.2594 63.9802 27.7657 68.522 27.9845C75.6088 28.3261 81.636 22.9693 81.9842 16.0198C82.2115 11.4839 79.9629 7.39107 76.4034 5Z" fill="#EDBD31"/>
<path fill-rule="evenodd" clip-rule="evenodd" d="M58.7788 16.2177C59.08 9.89333 64.2911 5.01836 70.4184 5.32912C73.9999 5.51074 77.1009 7.42443 79 10.2459C77.2477 6.71589 73.7669 4.22271 69.6532 4.01407C63.5259 3.7033 58.3148 8.57828 58.0136 14.9027C57.8885 17.5304 58.6314 19.9944 59.9812 22C59.1236 20.2722 58.6798 18.296 58.7788 16.2177Z" fill="#F7DB5E"/>
<path fill-rule="evenodd" clip-rule="evenodd" d="M70.5036 7.06901L70.4269 8.64124C71.048 8.77386 71.5501 9.00781 71.9326 9.34301C72.3153 9.6783 72.6709 10.1811 73 10.8513L71.4054 11.6488C70.9801 10.7702 70.3906 10.3119 69.6372 10.2746C69.1702 10.2515 68.776 10.3714 68.4548 10.6342C68.1335 10.8971 67.9626 11.2371 67.9423 11.6542C67.9238 12.0339 68.0331 12.3556 68.2703 12.6193C68.5023 12.8774 68.9816 13.1933 69.708 13.567C70.3357 13.8928 70.8528 14.1959 71.2594 14.476C71.6659 14.7562 71.9695 15.0217 72.17 15.2729C72.7379 15.9552 72.9992 16.7587 72.9542 17.6839C72.9098 18.5931 72.6 19.3819 72.0249 20.0501C71.4553 20.7135 70.7162 21.1433 69.8078 21.3395L69.7269 23L68.3339 22.931L68.4125 21.3186C67.3809 21.0959 66.6051 20.6958 66.0855 20.1179C65.5658 19.54 65.2039 18.6698 65 17.507L66.7691 17.2247C66.9682 18.0496 67.2317 18.6442 67.5597 19.0088C67.9045 19.3584 68.3764 19.5479 68.9762 19.5776C69.5598 19.6064 70.0572 19.4408 70.4685 19.0806C70.874 18.7254 71.0914 18.251 71.1203 17.6574C71.1462 17.1279 71.0049 16.6948 70.6969 16.3578C70.54 16.1947 70.3058 16.0076 69.9942 15.7964C69.6827 15.5854 69.2832 15.3525 68.7957 15.0978C67.7889 14.5815 67.1332 14.1203 66.8286 13.7139C66.3423 13.1055 66.119 12.3948 66.1586 11.582C66.1775 11.1969 66.2558 10.8417 66.3941 10.5161C66.5323 10.1906 66.7234 9.89857 66.9674 9.63987C67.2114 9.38135 67.508 9.16151 67.8573 8.98036C68.2064 8.79939 68.5989 8.66328 69.034 8.57223L69.1107 7L70.5036 7.06901Z" fill="#D49A34"/>
<path fill-rule="evenodd" clip-rule="evenodd" d="M21.7081 30.0063C20.7757 29.0755 19.5505 28.6101 18.3263 28.6101C17.1001 28.6101 15.8768 29.0755 14.9426 30.0063C13.0751 31.8669 13.0751 34.8854 14.9426 36.7469C15.8768 37.6777 17.1001 38.1431 18.3263 38.1431C19.5505 38.1431 20.7757 37.6777 21.7081 36.7469C23.5765 34.8854 23.5765 31.8669 21.7081 30.0063Z" fill="#5E76FA"/>
<path fill-rule="evenodd" clip-rule="evenodd" d="M78.0475 56.5989C77.0216 55.5585 75.6734 55.0383 74.3262 55.0383C72.977 55.0383 71.6309 55.5585 70.6029 56.5989C68.548 58.6785 68.548 62.0523 70.6029 64.1331C71.6309 65.1734 72.977 65.6936 74.3262 65.6936C75.6734 65.6936 77.0216 65.1734 78.0475 64.1331C80.1034 62.0523 80.1034 58.6785 78.0475 56.5989Z" fill="#5E76FA"/>
<path fill-rule="evenodd" clip-rule="evenodd" d="M51.4633 14.1482C50.3228 12.9916 48.824 12.4133 47.3264 12.4133C45.8265 12.4133 44.33 12.9916 43.1872 14.1482C40.9028 16.4601 40.9028 20.2108 43.1872 22.5239C44.33 23.6805 45.8265 24.2587 47.3264 24.2587C48.824 24.2587 50.3228 23.6805 51.4633 22.5239C53.7488 20.2108 53.7488 16.4601 51.4633 14.1482Z" fill="#5E76FA"/>
<path fill-rule="evenodd" clip-rule="evenodd" d="M19.827 32.6995C19.6081 32.5234 19.287 32.3624 18.8628 32.2149L18.5923 32.1244C18.5379 32.1054 18.4901 32.0854 18.4423 32.0663C18.2263 31.9797 18.0667 31.8902 17.9721 31.796C17.8556 31.6807 17.7973 31.5294 17.7973 31.3418C17.7973 31.1495 17.8556 30.9914 17.9702 30.8696C18.0859 30.7477 18.2359 30.6858 18.4213 30.6858C18.428 30.6858 18.4346 30.6877 18.4423 30.6877C18.6305 30.6925 18.7892 30.7496 18.9124 30.8629C19.0415 30.98 19.1141 31.14 19.1322 31.3418H20.3382C20.32 31 20.2293 30.6925 20.0668 30.4192C19.9034 30.146 19.6827 29.9337 19.4046 29.7832C19.2679 29.708 19.1246 29.6528 18.9736 29.6147V28.5398H18.4423H17.9721V29.6223H17.9731C17.8259 29.6614 17.6864 29.7175 17.5507 29.7937C17.266 29.9517 17.0395 30.1679 16.8751 30.4421C16.7088 30.7163 16.6267 31.0124 16.6267 31.3332C16.6267 31.6312 16.7002 31.914 16.8484 32.1806C16.9955 32.4462 17.1933 32.6566 17.4456 32.8147C17.5727 32.8947 17.7476 32.9756 17.9693 33.0584C18.0008 33.067 18.0859 33.0946 18.2216 33.1384C18.2999 33.1651 18.3735 33.1898 18.4423 33.2155C18.7032 33.3155 18.901 33.4212 19.0338 33.5335C19.2249 33.6973 19.3214 33.9163 19.3214 34.1886C19.3214 34.4228 19.2431 34.617 19.0864 34.7684C18.9296 34.9217 18.728 34.9978 18.4863 34.9978C18.47 34.9978 18.4566 34.9959 18.4423 34.995C18.2101 34.9864 18.019 34.9179 17.8718 34.7827C17.718 34.6399 17.6339 34.4456 17.6167 34.199H16.3906C16.4059 34.4847 16.4547 34.7198 16.5368 34.8979C16.6219 35.1226 16.7585 35.3263 16.9401 35.5091C17.2344 35.8081 17.5775 35.9966 17.9721 36.0794V37.1305H18.4423H18.9736V36.0632C19.1485 36.0194 19.3148 35.9518 19.4763 35.8595C19.7906 35.6814 20.0381 35.4377 20.2197 35.1283C20.4022 34.8207 20.4921 34.4789 20.4921 34.1076C20.4921 33.5316 20.2704 33.0613 19.827 32.6995Z" fill="white"/>
<path fill-rule="evenodd" clip-rule="evenodd" d="M75.6957 59.7384C75.496 59.5751 75.203 59.426 74.8159 59.2892L74.5691 59.2054C74.5194 59.1877 74.4758 59.1692 74.4322 59.1515C74.2351 59.0712 74.0895 58.9883 74.0032 58.9009C73.8968 58.7941 73.8436 58.6538 73.8436 58.48C73.8436 58.3017 73.8968 58.1552 74.0014 58.0423C74.107 57.9293 74.2439 57.8719 74.413 57.8719C74.4191 57.8719 74.4252 57.8737 74.4322 57.8737C74.604 57.8781 74.7487 57.9311 74.8612 58.0361C74.9789 58.1446 75.0452 58.2929 75.0618 58.48H76.1622C76.1457 58.1632 76.0628 57.8781 75.9146 57.6248C75.7655 57.3716 75.564 57.1748 75.3103 57.0353C75.1856 56.9656 75.0548 56.9144 74.917 56.8791V55.8828H74.4322H74.0032V56.8862H74.0041C73.8698 56.9224 73.7425 56.9744 73.6186 57.045C73.3588 57.1915 73.1521 57.3919 73.0022 57.646C72.8504 57.9002 72.7754 58.1746 72.7754 58.472C72.7754 58.7482 72.8426 59.0103 72.9777 59.2574C73.112 59.5037 73.2925 59.6987 73.5227 59.8452C73.6387 59.9193 73.7983 59.9943 74.0006 60.0711C74.0294 60.079 74.107 60.1046 74.2308 60.1452C74.3023 60.1699 74.3694 60.1929 74.4322 60.2167C74.6703 60.3094 74.8508 60.4073 74.972 60.5115C75.1464 60.6632 75.2344 60.8662 75.2344 61.1186C75.2344 61.3357 75.1629 61.5157 75.0199 61.656C74.8769 61.7981 74.6929 61.8687 74.4723 61.8687C74.4575 61.8687 74.4453 61.867 74.4322 61.8661C74.2203 61.8581 74.0459 61.7946 73.9116 61.6693C73.7712 61.5369 73.6945 61.3569 73.6788 61.1283H72.5601C72.574 61.3931 72.6185 61.611 72.6935 61.7761C72.7711 61.9843 72.8958 62.1732 73.0614 62.3426C73.33 62.6197 73.6431 62.7944 74.0032 62.8712V63.8455H74.4322H74.917V62.8562C75.0766 62.8156 75.2283 62.753 75.3757 62.6674C75.6626 62.5023 75.8884 62.2764 76.0541 61.9896C76.2206 61.7046 76.3026 61.3878 76.3026 61.0436C76.3026 60.5097 76.1003 60.0737 75.6957 59.7384Z" fill="white"/>
<path fill-rule="evenodd" clip-rule="evenodd" d="M48.7816 18.6499C48.5408 18.453 48.1875 18.2731 47.7206 18.1082L47.4229 18.0071C47.363 17.9858 47.3104 17.9634 47.2578 17.9421C47.0202 17.8453 46.8446 17.7452 46.7404 17.6399C46.6121 17.5111 46.548 17.3419 46.548 17.1322C46.548 16.9172 46.6121 16.7406 46.7383 16.6043C46.8656 16.4681 47.0307 16.3989 47.2347 16.3989C47.2421 16.3989 47.2494 16.401 47.2578 16.401C47.465 16.4064 47.6396 16.4702 47.7752 16.5969C47.9172 16.7278 47.9971 16.9066 48.0171 17.1322H49.3443C49.3243 16.7501 49.2244 16.4064 49.0456 16.1009C48.8658 15.7955 48.6229 15.5581 48.3168 15.39C48.1664 15.3059 48.0087 15.2442 47.8425 15.2016V14H47.2578H46.7404V15.2101H46.7415C46.5795 15.2537 46.426 15.3165 46.2767 15.4017C45.9633 15.5783 45.7141 15.8199 45.5332 16.1265C45.3502 16.433 45.2598 16.764 45.2598 17.1226C45.2598 17.4558 45.3407 17.7719 45.5037 18.0699C45.6657 18.3668 45.8834 18.602 46.161 18.7787C46.3009 18.8681 46.4933 18.9585 46.7373 19.0511C46.772 19.0607 46.8656 19.0916 47.0149 19.1405C47.1011 19.1703 47.1821 19.198 47.2578 19.2267C47.5449 19.3385 47.7626 19.4566 47.9088 19.5822C48.1191 19.7653 48.2253 20.0101 48.2253 20.3145C48.2253 20.5763 48.1391 20.7934 47.9666 20.9626C47.7942 21.134 47.5723 21.2191 47.3062 21.2191C47.2883 21.2191 47.2736 21.217 47.2578 21.2159C47.0023 21.2063 46.792 21.1297 46.63 20.9786C46.4607 20.8189 46.3682 20.6018 46.3492 20.3262H45C45.0168 20.6454 45.0705 20.9083 45.1609 21.1074C45.2545 21.3585 45.4049 21.5863 45.6047 21.7906C45.9286 22.1248 46.3061 22.3355 46.7404 22.4281V23.6031H47.2578H47.8425V22.41C48.035 22.3611 48.218 22.2855 48.3957 22.1823C48.7417 21.9833 49.0141 21.7108 49.2139 21.3649C49.4147 21.0211 49.5136 20.6391 49.5136 20.224C49.5136 19.5801 49.2696 19.0543 48.7816 18.6499Z" fill="white"/>
</svg>
