<svg width="26" height="31" viewBox="0 0 26 31" fill="none" xmlns="http://www.w3.org/2000/svg">
<path d="M13 7.77078C13.7138 7.77078 12.6709 7.77078 13 7.77078V7.77078Z" fill="#DADADA"/>
<path d="M13 7.77078C12.2862 7.77078 13.3291 7.77078 13 7.77078V7.77078Z" fill="#DADADA"/>
<path d="M1 18.7708V29.7708H13M1 18.7708V7.77078H13M1 18.7708H13M25 18.7708V7.77078H13M25 18.7708V29.7708H13M25 18.7708H13M13 7.77078C14.0435 3.27078 17.4295 -0.729212 19.9765 1.77079C22.5562 4.30294 16.0003 7.61489 13 7.77078ZM13 7.77078C12.6709 7.77078 13.7138 7.77078 13 7.77078ZM13 7.77078V18.7708M13 7.77078C11.9565 3.27078 8.57049 -0.729212 6.02352 1.77079C3.4438 4.30294 9.9997 7.61489 13 7.77078ZM13 7.77078C13.3291 7.77078 12.2862 7.77078 13 7.77078ZM13 29.7708V18.7708" stroke="white" stroke-linecap="square"/>
</svg>
